<svg width="24" height="24" viewBox="0 0 24 24" fill="none" xmlns="http://www.w3.org/2000/svg">
<line x1="4.5" y1="17.5" x2="19.5" y2="17.5" stroke="black" stroke-linecap="round"/>
<path d="M7 5.5H11C11.2761 5.5 11.5 5.72386 11.5 6V17C11.5 17.2761 11.2761 17.5 11 17.5H7C6.72386 17.5 6.5 17.2761 6.5 17V6C6.5 5.72386 6.72386 5.5 7 5.5Z" fill="currentColor" stroke="black" stroke-linejoin="round"/>
<path d="M14 10.5H17C17.2761 10.5 17.5 10.7239 17.5 11V17C17.5 17.2761 17.2761 17.5 17 17.5H14C13.7239 17.5 13.5 17.2761 13.5 17V11C13.5 10.7239 13.7239 10.5 14 10.5Z" fill="currentColor" stroke="black" stroke-linejoin="round"/>
</svg>
