<svg width="24" height="24" viewBox="0 0 24 24" fill="none" xmlns="http://www.w3.org/2000/svg">
<line x1="4.5" y1="12" x2="19.5" y2="12" stroke="black" stroke-linecap="round"/>
<path d="M7 6.5H11C11.2761 6.5 11.5 6.72386 11.5 7V17C11.5 17.2761 11.2761 17.5 11 17.5H7C6.72386 17.5 6.5 17.2761 6.5 17V7C6.5 6.72386 6.72386 6.5 7 6.5Z" fill="currentColor" stroke="black" stroke-linejoin="round"/>
<path d="M14 8.5H17C17.2761 8.5 17.5 8.72386 17.5 9V15C17.5 15.2761 17.2761 15.5 17 15.5H14C13.7239 15.5 13.5 15.2761 13.5 15V9C13.5 8.72386 13.7239 8.5 14 8.5Z" fill="currentColor" stroke="black" stroke-linejoin="round"/>
</svg>
