<svg width="24" height="24" viewBox="0 0 24 24" fill="none" xmlns="http://www.w3.org/2000/svg">
<path d="M18.5 7.5V16.5C18.5 16.7761 18.2761 17 18 17H10.8663C10.748 17 10.6336 16.9581 10.5433 16.8817L5.22515 12.3817C4.98912 12.182 4.98912 11.818 5.22515 11.6183L10.5433 7.11831C10.6336 7.04192 10.748 7 10.8663 7H18C18.2761 7 18.5 7.22386 18.5 7.5Z" fill="currentColor" stroke="black" stroke-linejoin="round"/>
<path d="M10.6464 14.1464C10.4512 14.3417 10.4512 14.6583 10.6464 14.8536C10.8417 15.0488 11.1583 15.0488 11.3536 14.8536L10.6464 14.1464ZM16.3536 9.85355C16.5488 9.65829 16.5488 9.34171 16.3536 9.14645C16.1583 8.95118 15.8417 8.95118 15.6464 9.14645L16.3536 9.85355ZM11.3536 14.8536L16.3536 9.85355L15.6464 9.14645L10.6464 14.1464L11.3536 14.8536Z" fill="black"/>
<path d="M16.3536 14.1464C16.5488 14.3417 16.5488 14.6583 16.3536 14.8536C16.1583 15.0488 15.8417 15.0488 15.6464 14.8536L16.3536 14.1464ZM10.6464 9.85355C10.4512 9.65829 10.4512 9.34171 10.6464 9.14645C10.8417 8.95118 11.1583 8.95118 11.3536 9.14645L10.6464 9.85355ZM15.6464 14.8536L10.6464 9.85355L11.3536 9.14645L16.3536 14.1464L15.6464 14.8536Z" fill="black"/>
</svg>
