<svg width="24" height="24" viewBox="0 0 24 24" fill="none" xmlns="http://www.w3.org/2000/svg">
<line x1="12" y1="14.5" x2="12" y2="9.5" stroke="black" stroke-linecap="round"/>
<path d="M6 6.5H10C10.2761 6.5 10.5 6.72386 10.5 7V17C10.5 17.2761 10.2761 17.5 10 17.5H6C5.72386 17.5 5.5 17.2761 5.5 17V7C5.5 6.72386 5.72386 6.5 6 6.5Z" fill="currentColor" stroke="black" stroke-linejoin="round"/>
<path d="M14 6.5H18C18.2761 6.5 18.5 6.72386 18.5 7V17C18.5 17.2761 18.2761 17.5 18 17.5H14C13.7239 17.5 13.5 17.2761 13.5 17V7C13.5 6.72386 13.7239 6.5 14 6.5Z" fill="currentColor" stroke="black" stroke-linejoin="round"/>
</svg>
