<svg width="24" height="24" viewBox="0 0 24 24" fill="none" xmlns="http://www.w3.org/2000/svg">
<line x1="9.5" y1="12" x2="14.5" y2="12" stroke="black" stroke-linecap="round"/>
<path d="M17.5 6L17.5 10C17.5 10.2761 17.2761 10.5 17 10.5L7 10.5C6.72386 10.5 6.5 10.2761 6.5 10L6.5 6C6.5 5.72386 6.72386 5.5 7 5.5L17 5.5C17.2761 5.5 17.5 5.72386 17.5 6Z" fill="currentColor" stroke="black" stroke-linejoin="round"/>
<path d="M17.5 14L17.5 18C17.5 18.2761 17.2761 18.5 17 18.5L7 18.5C6.72386 18.5 6.5 18.2761 6.5 18L6.5 14C6.5 13.7239 6.72386 13.5 7 13.5L17 13.5C17.2761 13.5 17.5 13.7239 17.5 14Z" fill="currentColor" stroke="black" stroke-linejoin="round"/>
</svg>
