<svg width="24" height="24" viewBox="0 0 24 24" fill="none" xmlns="http://www.w3.org/2000/svg">
<line x1="17.5" y1="19.5" x2="17.5" y2="4.5" stroke="black" stroke-linecap="round"/>
<path d="M5.5 17V13C5.5 12.7239 5.72386 12.5 6 12.5H17C17.2761 12.5 17.5 12.7239 17.5 13V17C17.5 17.2761 17.2761 17.5 17 17.5H6C5.72386 17.5 5.5 17.2761 5.5 17Z" fill="currentColor" stroke="black" stroke-linejoin="round"/>
<path d="M10.5 10V7C10.5 6.72386 10.7239 6.5 11 6.5H17C17.2761 6.5 17.5 6.72386 17.5 7V10C17.5 10.2761 17.2761 10.5 17 10.5H11C10.7239 10.5 10.5 10.2761 10.5 10Z" fill="currentColor" stroke="black" stroke-linejoin="round"/>
</svg>
