<svg width="24" height="24" viewBox="0 0 24 24" fill="none" xmlns="http://www.w3.org/2000/svg">
<line x1="0.5" y1="-0.5" x2="15.5" y2="-0.5" transform="matrix(0 -1 -1 0 6 20)" stroke="black" stroke-linecap="round"/>
<line x1="0.5" y1="-0.5" x2="15.5" y2="-0.5" transform="matrix(0 -1 -1 0 18 20)" stroke="black" stroke-linecap="round"/>
<path d="M18.5 17V13C18.5 12.7239 18.2761 12.5 18 12.5H7C6.72386 12.5 6.5 12.7239 6.5 13V17C6.5 17.2761 6.72386 17.5 7 17.5H18C18.2761 17.5 18.5 17.2761 18.5 17Z" fill="currentColor" stroke="black" stroke-linejoin="round"/>
<path d="M18.5 10V7C18.5 6.72386 18.2761 6.5 18 6.5L7 6.5C6.72386 6.5 6.5 6.72386 6.5 7V10C6.5 10.2761 6.72386 10.5 7 10.5H18C18.2761 10.5 18.5 10.2761 18.5 10Z" fill="currentColor" stroke="black" stroke-linejoin="round"/>
</svg>
